<?xml version="1.0" encoding="iso-8859-1"?>
<!-- Uploaded to: SVG Repo, www.svgrepo.com, Generator: SVG Repo Mixer Tools -->
<svg height="800px" width="800px" version="1.1" id="Layer_1" xmlns="http://www.w3.org/2000/svg" xmlns:xlink="http://www.w3.org/1999/xlink" 
	 viewBox="0 0 503.413 503.413" xml:space="preserve">
<g>
	<path style="fill:#894B9D;" d="M364.736,56.454c-56.546,0-95.206,24.125-113.074,69.424
		c-17.877-45.299-56.537-69.424-113.083-69.424c-121.144,0-161.532,144.636-74.839,240.449
		c30.781,34.018,179.825,185.257,187.921,193.449c8.088-8.192,157.132-159.432,187.913-193.449
		C526.268,201.089,485.88,56.454,364.736,56.454"/>
	<g>
		<path style="fill:#6A387C;" d="M483.473,155.136c22.459-41.403,19.846-89.418,19.846-142.076
			c-22.702,27.249-41.897,47.33-74.257,60.321C458.376,90.997,477.13,120.789,483.473,155.136"/>
		<path style="fill:#6A387C;" d="M19.931,155.136C-2.519,113.734,0.093,65.718,0.093,13.061C22.795,40.309,41.99,60.39,74.35,73.381
			C45.036,90.997,26.283,120.797,19.931,155.136"/>
	</g>
</g>
</svg>